<?xml version="1.0" encoding="UTF-8"?>
<svg width="132px" height="57px" viewBox="0 0 132 57" version="1.1" xmlns="http://www.w3.org/2000/svg" xmlns:xlink="http://www.w3.org/1999/xlink">
    <title>编组</title>
    <defs>
        <path d="M40.9333333,6.81351351 C41.8,11.0801802 41.8,15.2635135 40.9333333,19.3635135 C40.0666667,23.4635135 38.3666667,27.2135135 35.8333333,30.6135135 C34.9666667,32.3468468 33.8,33.4468468 32.3333333,33.9135135 C30.8666667,34.3801802 29.2666667,34.6135135 27.5333333,34.6135135 C27.1333333,34.6135135 26.5666667,34.6301802 25.8333333,34.6635135 C25.1,34.6968468 24.35,34.7635135 23.5833333,34.8635135 C22.8166667,34.9635135 22.0833333,35.0635135 21.3833333,35.1635135 C20.6833333,35.2635135 20.1333333,35.3801802 19.7333333,35.5135135 L20.1333333,42.7135135 C20.1333333,43.3801802 20.0666667,44.0801802 19.9333333,44.8135135 C19.8,45.5468468 19.6666667,46.2135135 19.5333333,46.8135135 C19.4,47.6135135 19.3666667,48.2968468 19.4333333,48.8635135 C19.5,49.4301802 19.4666667,50.1135135 19.3333333,50.9135135 C19.2,51.7135135 19.0833333,52.5468468 18.9833333,53.4135135 C18.8833333,54.2801802 18.8333333,55.1801802 18.8333333,56.1135135 C17.9666667,54.7801802 17.2,52.9635135 16.5333333,50.6635135 C15.8666667,48.3635135 15.2833333,45.7968468 14.7833333,42.9635135 C14.2833333,40.1301802 13.8666667,37.1801802 13.5333333,34.1135135 C13.2,31.0468468 12.9166667,28.0801802 12.6833333,25.2135135 C12.45,22.3468468 12.2833333,19.6968468 12.1833333,17.2635135 C12.0833333,14.8301802 12,12.8801802 11.9333333,11.4135135 C10.6666667,11.9468468 9.4,12.6135135 8.13333333,13.4135135 C6.86666667,14.2135135 5.66666667,14.9801802 4.53333333,15.7135135 C4.2,15.9801802 3.85,16.0135135 3.48333333,15.8135135 C3.11666667,15.6135135 2.76666667,15.6135135 2.43333333,15.8135135 C2.16666667,16.0801802 1.91666667,16.2135135 1.68333333,16.2135135 C1.45,16.2135135 1.23333333,16.1468468 1.03333333,16.0135135 C0.833333333,15.8801802 0.666666667,15.7301802 0.533333333,15.5635135 C0.4,15.3968468 0.266666667,15.3135135 0.133333333,15.3135135 C-1.42108547e-14,14.9135135 -0.0333333333,14.6301802 0.0333333333,14.4635135 C0.1,14.2968468 0.133333333,14.0801802 0.133333333,13.8135135 C0.2,13.4135135 0.25,13.0301802 0.283333333,12.6635135 C0.316666667,12.2968468 0.5,11.9801802 0.833333333,11.7135135 C4.83333333,8.51351351 8.6,6.09684685 12.1333333,4.46351351 C15.6666667,2.83018018 18.9333333,1.64684685 21.9333333,0.913513514 C25.1333333,0.0468468468 28.0333333,-0.203153153 30.6333333,0.163513514 C33.2333333,0.53018018 35.8,1.88018018 38.3333333,4.21351351 C39.0666667,4.41351351 39.6833333,4.69684685 40.1833333,5.06351351 C40.6833333,5.43018018 40.9333333,6.01351351 40.9333333,6.81351351 Z M36.0333333,8.81351351 C35.3,7.81351351 34.3,7.11351351 33.0333333,6.71351351 C31.7666667,6.31351351 30.3333333,6.14684685 28.7333333,6.21351351 C27.1333333,6.28018018 25.4833333,6.53018018 23.7833333,6.96351351 C22.0833333,7.39684685 20.4666667,7.94684685 18.9333333,8.61351351 C18.9333333,9.81351351 18.9333333,11.2968468 18.9333333,13.0635135 C18.9333333,14.8301802 18.95,16.6968468 18.9833333,18.6635135 C19.0166667,20.6301802 19.0833333,22.5968468 19.1833333,24.5635135 C19.2833333,26.5301802 19.4,28.3468468 19.5333333,30.0135135 C20.5333333,29.6801802 21.6833333,29.3635135 22.9833333,29.0635135 C24.2833333,28.7635135 25.5833333,28.3968468 26.8833333,27.9635135 C28.1833333,27.5301802 29.4166667,26.9801802 30.5833333,26.3135135 C31.75,25.6468468 32.7,24.7135135 33.4333333,23.5135135 C33.8333333,22.6468468 34.2833333,21.5635135 34.7833333,20.2635135 C35.2833333,18.9635135 35.7,17.5968468 36.0333333,16.1635135 C36.3666667,14.7301802 36.55,13.3635135 36.5833333,12.0635135 C36.6166667,10.7635135 36.4333333,9.68018018 36.0333333,8.81351351 Z" id="path-1"></path>
        <path d="M74.0333333,16.4135135 C74.9,18.5468468 75.7166667,20.8468468 76.4833333,23.3135135 C77.25,25.7801802 77.7833333,28.2301802 78.0833333,30.6635135 C78.3833333,33.0968468 78.3833333,35.4468468 78.0833333,37.7135135 C77.7833333,39.9801802 77,41.9468468 75.7333333,43.6135135 C75.2,44.2801802 74.5666667,44.5468468 73.8333333,44.4135135 C73.5666667,44.3468468 73.3333333,44.1801802 73.1333333,43.9135135 C72.9333333,43.6468468 72.6666667,43.4135135 72.3333333,43.2135135 C72.0666667,43.0135135 71.7833333,42.8468468 71.4833333,42.7135135 C71.1833333,42.5801802 70.9,42.3135135 70.6333333,41.9135135 C69.6333333,42.2468468 68.65,42.7301802 67.6833333,43.3635135 C66.7166667,43.9968468 65.7333333,44.6468468 64.7333333,45.3135135 C63.7333333,45.9801802 62.7,46.6301802 61.6333333,47.2635135 C60.5666667,47.8968468 59.4666667,48.3468468 58.3333333,48.6135135 C57.1333333,48.9468468 56.25,48.8968468 55.6833333,48.4635135 C55.1166667,48.0301802 54.5,47.5468468 53.8333333,47.0135135 C53.3666667,46.6135135 53.0666667,46.3635135 52.9333333,46.2635135 C52.8,46.1635135 52.6666667,45.7468468 52.5333333,45.0135135 C52.3333333,43.5468468 52.3166667,41.9635135 52.4833333,40.2635135 C52.65,38.5635135 53.0333333,36.8468468 53.6333333,35.1135135 C55.3,30.0468468 58.7,26.6468468 63.8333333,24.9135135 C64.4333333,24.7135135 65.05,24.6635135 65.6833333,24.7635135 C66.3166667,24.8635135 66.9333333,25.0468468 67.5333333,25.3135135 C68.1333333,25.5801802 68.7166667,25.9135135 69.2833333,26.3135135 C69.85,26.7135135 70.3666667,27.1135135 70.8333333,27.5135135 L72.4333333,28.8135135 C72.7666667,27.6801802 72.75,26.4635135 72.3833333,25.1635135 C72.0166667,23.8635135 71.4666667,22.6301802 70.7333333,21.4635135 C70,20.2968468 69.1666667,19.2468468 68.2333333,18.3135135 C67.3,17.3801802 66.4,16.7468468 65.5333333,16.4135135 C62.1333333,16.4135135 59.0833333,17.1968468 56.3833333,18.7635135 C53.6833333,20.3301802 51.0666667,22.3801802 48.5333333,24.9135135 C48.4,25.0468468 48.25,25.1468468 48.0833333,25.2135135 C47.9166667,25.2801802 47.7666667,25.3468468 47.6333333,25.4135135 C47.4333333,25.5468468 47.2,25.5801802 46.9333333,25.5135135 C46.7333333,25.4468468 46.7,25.2468468 46.8333333,24.9135135 C47.2333333,22.7801802 48.0333333,20.8635135 49.2333333,19.1635135 C50.4333333,17.4635135 51.8333333,15.9801802 53.4333333,14.7135135 C55.0333333,13.4468468 56.7333333,12.3801802 58.5333333,11.5135135 C60.3333333,10.6468468 62.1,10.0135135 63.8333333,9.61351351 C64.1,9.48018018 64.35,9.39684685 64.5833333,9.36351351 C64.8166667,9.33018018 65.1,9.31351351 65.4333333,9.31351351 C65.9,9.31351351 66.3333333,9.44684685 66.7333333,9.71351351 C67.1333333,9.98018018 67.6,10.2801802 68.1333333,10.6135135 C68.8,10.9468468 69.4666667,11.3301802 70.1333333,11.7635135 C70.8,12.1968468 71.4,12.7135135 71.9333333,13.3135135 C72.4,13.8468468 72.8,14.3801802 73.1333333,14.9135135 C73.4666667,15.4468468 73.7666667,15.9468468 74.0333333,16.4135135 Z M70.6333333,34.2135135 C70.2333333,33.3468468 69.6166667,32.5468468 68.7833333,31.8135135 C67.95,31.0801802 67,30.5301802 65.9333333,30.1635135 C64.8666667,29.7968468 63.7166667,29.7135135 62.4833333,29.9135135 C61.25,30.1135135 60,30.7135135 58.7333333,31.7135135 C58.3333333,32.5801802 57.9333333,33.5301802 57.5333333,34.5635135 C57.1333333,35.5968468 56.8333333,36.6301802 56.6333333,37.6635135 C56.4333333,38.6968468 56.35,39.7301802 56.3833333,40.7635135 C56.4166667,41.7968468 56.6333333,42.7468468 57.0333333,43.6135135 C59.5666667,42.7468468 62.0333333,41.7468468 64.4333333,40.6135135 C66.8333333,39.4801802 68.9,38.4801802 70.6333333,37.6135135 C71.0333333,37.2135135 71.2666667,36.8801802 71.3333333,36.6135135 C71.4,36.3468468 71.3833333,36.1135135 71.2833333,35.9135135 C71.1833333,35.7135135 71.05,35.4801802 70.8833333,35.2135135 C70.7166667,34.9468468 70.6333333,34.6135135 70.6333333,34.2135135 Z" id="path-2"></path>
        <path d="M98.1333333,17.0135135 L96.4333333,18.7135135 C96.9666667,18.6468468 97.7833333,18.4968468 98.8833333,18.2635135 C99.9833333,18.0301802 101.066667,17.9135135 102.133333,17.9135135 C102.933333,18.0468468 103.6,18.3135135 104.133333,18.7135135 C104.666667,19.1135135 105,19.8801802 105.133333,21.0135135 C105.4,22.6135135 105.816667,24.2301802 106.383333,25.8635135 C106.95,27.4968468 107.383333,29.1135135 107.683333,30.7135135 C107.983333,32.3135135 107.966667,33.8301802 107.633333,35.2635135 C107.3,36.6968468 106.4,37.9801802 104.933333,39.1135135 C103.4,41.4468468 101.716667,43.3968468 99.8833333,44.9635135 C98.05,46.5301802 96.1333333,47.4468468 94.1333333,47.7135135 C92.8,47.9135135 91.3333333,47.7301802 89.7333333,47.1635135 C88.1333333,46.5968468 86.9666667,45.6135135 86.2333333,44.2135135 C86.0333333,44.3468468 85.8666667,44.3635135 85.7333333,44.2635135 C85.6,44.1635135 85.4666667,44.0468468 85.3333333,43.9135135 C85.2,43.7801802 85.0833333,43.7468468 84.9833333,43.8135135 C84.8833333,43.8801802 84.8,43.8468468 84.7333333,43.7135135 C84.6666667,43.5135135 84.6333333,43.2468468 84.6333333,42.9135135 L84.6333333,42.7135135 L84.6333333,42.5135135 C84.7,40.1801802 84.9166667,37.8301802 85.2833333,35.4635135 C85.65,33.0968468 86.2166667,30.7968468 86.9833333,28.5635135 C87.75,26.3301802 88.75,24.2301802 89.9833333,22.2635135 C91.2166667,20.2968468 92.8,18.5468468 94.7333333,17.0135135 C95.4,16.6135135 96.1333333,16.4801802 96.9333333,16.6135135 C97.0666667,16.6135135 97.2333333,16.6135135 97.4333333,16.6135135 C97.6333333,16.6135135 97.8666667,16.7468468 98.1333333,17.0135135 Z M94.7333333,23.8135135 C94.3333333,23.7468468 94.1,23.6135135 94.0333333,23.4135135 C93.9666667,23.2135135 93.9833333,22.9635135 94.0833333,22.6635135 C94.1833333,22.3635135 94.3166667,22.0135135 94.4833333,21.6135135 C94.65,21.2135135 94.7333333,20.8135135 94.7333333,20.4135135 C93.3333333,21.6801802 92.25,23.2135135 91.4833333,25.0135135 C90.7166667,26.8135135 90.1666667,28.6635135 89.8333333,30.5635135 C89.5,32.4635135 89.35,34.3135135 89.3833333,36.1135135 C89.4166667,37.9135135 89.5,39.4801802 89.6333333,40.8135135 C89.7666667,41.9468468 90,42.8635135 90.3333333,43.5635135 C90.6666667,44.2635135 91.1666667,44.6801802 91.8333333,44.8135135 C92.5666667,45.0135135 93.5333333,44.8135135 94.7333333,44.2135135 C96.4666667,43.3468468 97.8666667,42.1468468 98.9333333,40.6135135 C100,39.0801802 100.866667,37.4468468 101.533333,35.7135135 C101.8,34.7801802 102.016667,33.6635135 102.183333,32.3635135 C102.35,31.0635135 102.3,29.8468468 102.033333,28.7135135 C101.7,27.1801802 100.85,26.0635135 99.4833333,25.3635135 C98.1166667,24.6635135 96.5333333,24.1468468 94.7333333,23.8135135 Z" id="path-3"></path>
    </defs>
    <g id="JSpaoLogo" stroke="none" stroke-width="1" fill="none" fill-rule="evenodd">
        <g id="编组" transform="translate(0, 0.0865)">
            <rect id="矩形" stroke="#EDD51D" fill="#EDD51D" x="0.5" y="27.4135135" width="28" height="28" rx="8"></rect>
            <g id="JS" transform="translate(7.454, 33.9615)" fill="#FFFFFF" fill-rule="nonzero">
                <path d="M2.499,0.252 L4.074,0.252 L4.074,11.655 C4.074,12.803 3.8885,13.6745 3.5175,14.2695 C3.1465,14.8645 2.499,15.162 1.575,15.162 C1.351,15.162 1.0815,15.134 0.7665,15.078 C0.4515,15.022 0.196,14.938 0,14.826 L0.336,13.461 C0.476,13.545 0.6335,13.608 0.8085,13.65 C0.9835,13.692 1.162,13.713 1.344,13.713 C1.596,13.713 1.799,13.657 1.953,13.545 C2.107,13.433 2.226,13.2755 2.31,13.0725 C2.394,12.8695 2.4465,12.6245 2.4675,12.3375 C2.4885,12.0505 2.499,11.725 2.499,11.361 L2.499,0.252 Z" id="路径"></path>
                <path d="M6.846,12.999 C7.112,13.181 7.4865,13.3525 7.9695,13.5135 C8.4525,13.6745 9.002,13.755 9.618,13.755 C10.402,13.755 11.039,13.5625 11.529,13.1775 C12.019,12.7925 12.264,12.187 12.264,11.361 C12.264,10.815 12.124,10.339 11.844,9.933 C11.564,9.527 11.214,9.1525 10.794,8.8095 C10.374,8.4665 9.9225,8.1305 9.4395,7.8015 C8.9565,7.4725 8.505,7.1085 8.085,6.7095 C7.665,6.3105 7.315,5.852 7.035,5.334 C6.755,4.816 6.615,4.193 6.615,3.465 C6.615,2.289 6.9685,1.4175 7.6755,0.8505 C8.3825,0.2835 9.303,0 10.437,0 C11.137,0 11.76,0.063 12.306,0.189 C12.852,0.315 13.293,0.476 13.629,0.672 L13.125,2.058 C12.873,1.904 12.5125,1.764 12.0435,1.638 C11.5745,1.512 11.032,1.449 10.416,1.449 C9.66,1.449 9.1,1.6345 8.736,2.0055 C8.372,2.3765 8.19,2.842 8.19,3.402 C8.19,3.892 8.33,4.326 8.61,4.704 C8.89,5.082 9.24,5.439 9.66,5.775 C10.08,6.111 10.5315,6.4505 11.0145,6.7935 C11.4975,7.1365 11.949,7.518 12.369,7.938 C12.789,8.358 13.139,8.834 13.419,9.366 C13.699,9.898 13.839,10.528 13.839,11.256 C13.839,12.488 13.475,13.454 12.747,14.154 C12.019,14.854 10.99,15.204 9.66,15.204 C8.82,15.204 8.1305,15.127 7.5915,14.973 C7.0525,14.819 6.622,14.644 6.3,14.448 L6.846,12.999 Z" id="路径"></path>
            </g>
            <g id="Pao" transform="translate(23.3667, -0)" fill-rule="nonzero">
                <g id="形状">
                    <use fill="#000000" xlink:href="#path-1"></use>
                    <use fill="#475569" xlink:href="#path-1"></use>
                </g>
                <g id="形状">
                    <use fill="#000000" xlink:href="#path-2"></use>
                    <use fill="#475569" xlink:href="#path-2"></use>
                </g>
                <g id="形状">
                    <use fill="#000000" xlink:href="#path-3"></use>
                    <use fill="#475569" xlink:href="#path-3"></use>
                </g>
            </g>
        </g>
    </g>
</svg>